<svg xmlns="http://www.w3.org/2000/svg" width="850" height="528" viewBox="0 0 850 528">
  <style>
    @keyframes fadeIn { from { opacity: 0; } to { opacity: 1; } }
    .bg { fill: #0D1117; }
    .border { fill: none; stroke: #FFD700; stroke-width: 1; opacity: 0.3; }
    .label { font-family: 'Courier New', monospace; font-size: 13px; fill: #C9D1D9; }
    .pct { font-family: 'Courier New', monospace; font-size: 12px; fill: #FFD700; font-weight: bold; }
    .title { font-family: 'Courier New', monospace; font-size: 14px; fill: #FFD700; font-weight: bold; }
    .line { animation: fadeIn 0.4s forwards; opacity: 0; }
  </style>

  <rect width="850" height="528" class="bg"/>
  <rect x="5" y="5" width="840" height="518" rx="8" class="border"/>

  <text x="30" y="35" class="title">varshuai@mass-coder:~$ cat /proc/skill-levels</text>
  <line x1="30" y1="48" x2="820" y2="48" stroke="#FFD700" stroke-width="0.5" opacity="0.2"/>

  
    <g class="line" style="animation-delay:0.3s">
      <text x="30" y="75" class="label">Security Research</text>
      <rect x="220" y="62" width="450" height="18" rx="4" fill="#21262D"/>
      <rect x="220" y="62" width="0" height="18" rx="4" fill="#FFD700" opacity="0.7">
        <animate attributeName="width" from="0" to="427" dur="1s" begin="0.3s" fill="freeze"/>
      </rect>
      <rect x="220" y="62" width="0" height="18" rx="4" fill="#FFD70055">
        <animate attributeName="width" from="0" to="427" dur="1s" begin="0.3s" fill="freeze"/>
      </rect>
      <text x="690" y="75" class="pct">95%</text>
    </g>
    <g class="line" style="animation-delay:0.5s">
      <text x="30" y="113" class="label">Python</text>
      <rect x="220" y="100" width="450" height="18" rx="4" fill="#21262D"/>
      <rect x="220" y="100" width="0" height="18" rx="4" fill="#FFD700" opacity="0.7">
        <animate attributeName="width" from="0" to="418" dur="1s" begin="0.5s" fill="freeze"/>
      </rect>
      <rect x="220" y="100" width="0" height="18" rx="4" fill="#FFD70055">
        <animate attributeName="width" from="0" to="418" dur="1s" begin="0.5s" fill="freeze"/>
      </rect>
      <text x="690" y="113" class="pct">93%</text>
    </g>
    <g class="line" style="animation-delay:0.7s">
      <text x="30" y="151" class="label">System Design</text>
      <rect x="220" y="138" width="450" height="18" rx="4" fill="#21262D"/>
      <rect x="220" y="138" width="0" height="18" rx="4" fill="#FFD700" opacity="0.7">
        <animate attributeName="width" from="0" to="418" dur="1s" begin="0.7s" fill="freeze"/>
      </rect>
      <rect x="220" y="138" width="0" height="18" rx="4" fill="#FFD70055">
        <animate attributeName="width" from="0" to="418" dur="1s" begin="0.7s" fill="freeze"/>
      </rect>
      <text x="690" y="151" class="pct">93%</text>
    </g>
    <g class="line" style="animation-delay:0.9000000000000001s">
      <text x="30" y="189" class="label">Cloud / DevOps</text>
      <rect x="220" y="176" width="450" height="18" rx="4" fill="#21262D"/>
      <rect x="220" y="176" width="0" height="18" rx="4" fill="#FFD700" opacity="0.7">
        <animate attributeName="width" from="0" to="414" dur="1s" begin="0.9000000000000001s" fill="freeze"/>
      </rect>
      <rect x="220" y="176" width="0" height="18" rx="4" fill="#FFD70055">
        <animate attributeName="width" from="0" to="414" dur="1s" begin="0.9000000000000001s" fill="freeze"/>
      </rect>
      <text x="690" y="189" class="pct">92%</text>
    </g>
    <g class="line" style="animation-delay:1.1s">
      <text x="30" y="227" class="label">JavaScript</text>
      <rect x="220" y="214" width="450" height="18" rx="4" fill="#21262D"/>
      <rect x="220" y="214" width="0" height="18" rx="4" fill="#FFD700" opacity="0.7">
        <animate attributeName="width" from="0" to="405" dur="1s" begin="1.1s" fill="freeze"/>
      </rect>
      <rect x="220" y="214" width="0" height="18" rx="4" fill="#FFD70055">
        <animate attributeName="width" from="0" to="405" dur="1s" begin="1.1s" fill="freeze"/>
      </rect>
      <text x="690" y="227" class="pct">90%</text>
    </g>
    <g class="line" style="animation-delay:1.3s">
      <text x="30" y="265" class="label">Bash Scripting</text>
      <rect x="220" y="252" width="450" height="18" rx="4" fill="#21262D"/>
      <rect x="220" y="252" width="0" height="18" rx="4" fill="#FFD700" opacity="0.7">
        <animate attributeName="width" from="0" to="405" dur="1s" begin="1.3s" fill="freeze"/>
      </rect>
      <rect x="220" y="252" width="0" height="18" rx="4" fill="#FFD70055">
        <animate attributeName="width" from="0" to="405" dur="1s" begin="1.3s" fill="freeze"/>
      </rect>
      <text x="690" y="265" class="pct">90%</text>
    </g>
    <g class="line" style="animation-delay:1.5000000000000002s">
      <text x="30" y="303" class="label">TypeScript</text>
      <rect x="220" y="290" width="450" height="18" rx="4" fill="#21262D"/>
      <rect x="220" y="290" width="0" height="18" rx="4" fill="#FFD700" opacity="0.7">
        <animate attributeName="width" from="0" to="391" dur="1s" begin="1.5000000000000002s" fill="freeze"/>
      </rect>
      <rect x="220" y="290" width="0" height="18" rx="4" fill="#FFD70055">
        <animate attributeName="width" from="0" to="391" dur="1s" begin="1.5000000000000002s" fill="freeze"/>
      </rect>
      <text x="690" y="303" class="pct">87%</text>
    </g>
    <g class="line" style="animation-delay:1.7000000000000002s">
      <text x="30" y="341" class="label">Java</text>
      <rect x="220" y="328" width="450" height="18" rx="4" fill="#21262D"/>
      <rect x="220" y="328" width="0" height="18" rx="4" fill="#FFD700" opacity="0.7">
        <animate attributeName="width" from="0" to="382" dur="1s" begin="1.7000000000000002s" fill="freeze"/>
      </rect>
      <rect x="220" y="328" width="0" height="18" rx="4" fill="#FFD70055">
        <animate attributeName="width" from="0" to="382" dur="1s" begin="1.7000000000000002s" fill="freeze"/>
      </rect>
      <text x="690" y="341" class="pct">85%</text>
    </g>
    <g class="line" style="animation-delay:1.9000000000000001s">
      <text x="30" y="379" class="label">Go</text>
      <rect x="220" y="366" width="450" height="18" rx="4" fill="#21262D"/>
      <rect x="220" y="366" width="0" height="18" rx="4" fill="#FFD700" opacity="0.7">
        <animate attributeName="width" from="0" to="369" dur="1s" begin="1.9000000000000001s" fill="freeze"/>
      </rect>
      <rect x="220" y="366" width="0" height="18" rx="4" fill="#FFD70055">
        <animate attributeName="width" from="0" to="369" dur="1s" begin="1.9000000000000001s" fill="freeze"/>
      </rect>
      <text x="690" y="379" class="pct">82%</text>
    </g>
    <g class="line" style="animation-delay:2.1s">
      <text x="30" y="417" class="label">AI / ML</text>
      <rect x="220" y="404" width="450" height="18" rx="4" fill="#21262D"/>
      <rect x="220" y="404" width="0" height="18" rx="4" fill="#FFD700" opacity="0.7">
        <animate attributeName="width" from="0" to="360" dur="1s" begin="2.1s" fill="freeze"/>
      </rect>
      <rect x="220" y="404" width="0" height="18" rx="4" fill="#FFD70055">
        <animate attributeName="width" from="0" to="360" dur="1s" begin="2.1s" fill="freeze"/>
      </rect>
      <text x="690" y="417" class="pct">80%</text>
    </g>
    <g class="line" style="animation-delay:2.3s">
      <text x="30" y="455" class="label">Rust</text>
      <rect x="220" y="442" width="450" height="18" rx="4" fill="#21262D"/>
      <rect x="220" y="442" width="0" height="18" rx="4" fill="#FFD700" opacity="0.7">
        <animate attributeName="width" from="0" to="337" dur="1s" begin="2.3s" fill="freeze"/>
      </rect>
      <rect x="220" y="442" width="0" height="18" rx="4" fill="#FFD70055">
        <animate attributeName="width" from="0" to="337" dur="1s" begin="2.3s" fill="freeze"/>
      </rect>
      <text x="690" y="455" class="pct">75%</text>
    </g>
</svg>